<?xml version="1.0"?><!DOCTYPE svg  PUBLIC '-//W3C//DTD SVG 1.1//EN'  'http://www.w3.org/Graphics/SVG/1.1/DTD/svg11.dtd'><svg xmlns="http://www.w3.org/2000/svg" xmlns:xlink="http://www.w3.org/1999/xlink" version="1.1" id="Layer_1" width="512px" height="512px" viewBox="0 0 512 512" enable-background="new 0 0 512 512" xml:space="preserve"><g><path fill="#DC593A" d="M249.469,255.995c0,42.47-23.1,79.54-57.44,99.37c-16.89,9.77-36.51,15.35-57.42,15.35   c-63.44,0-114.86-51.36-114.86-114.72c0-63.35,51.42-114.71,114.86-114.71c20.91,0,40.53,5.58,57.42,15.35   C226.37,176.466,249.469,213.536,249.469,255.995z"/><path fill="#F9BC15" d="M364.32,255.995c0,63.36-51.42,114.72-114.85,114.72c-20.93,0-40.54-5.59-57.44-15.35   c34.34-19.83,57.44-56.9,57.44-99.37c0-42.46-23.1-79.53-57.44-99.36c16.9-9.76,36.51-15.35,57.44-15.35   C312.9,141.286,364.32,192.645,364.32,255.995z"/><g><path fill="#EA4335" d="M249.464,94.117c-6.904,0-12.5-5.597-12.5-12.5V26c0-6.903,5.596-12.5,12.5-12.5s12.5,5.597,12.5,12.5    v55.617C261.964,88.52,256.368,94.117,249.464,94.117z"/></g><g><path fill="#EA4335" d="M249.464,498.5c-6.904,0-12.5-5.597-12.5-12.5v-55.617c0-6.903,5.596-12.5,12.5-12.5s12.5,5.597,12.5,12.5    V486C261.964,492.903,256.368,498.5,249.464,498.5z"/></g><g><path fill="#EA4335" d="M364.619,467.687c-4.318,0-8.518-2.239-10.833-6.246l-27.843-48.166    c-3.455-5.977-1.411-13.623,4.566-17.078c5.979-3.456,13.624-1.411,17.078,4.566l27.843,48.166    c3.455,5.977,1.411,13.623-4.566,17.078C368.893,467.146,366.742,467.687,364.619,467.687z"/></g><g><path fill="#EA4335" d="M448.886,383.502c-2.119,0-4.265-0.539-6.232-1.673l-48.226-27.809c-5.98-3.449-8.033-11.093-4.584-17.073    c3.449-5.981,11.092-8.032,17.073-4.585l48.226,27.809c5.98,3.449,8.033,11.093,4.584,17.073    C457.412,381.258,453.208,383.502,448.886,383.502z"/></g><g><path fill="#EA4335" d="M479.75,268.5h-55.686c-6.903,0-12.5-5.597-12.5-12.5s5.597-12.5,12.5-12.5h55.686    c6.904,0,12.5,5.597,12.5,12.5S486.654,268.5,479.75,268.5z"/></g><g><path fill="#EA4335" d="M400.684,181.31c-4.323,0-8.526-2.244-10.84-6.258c-3.449-5.98-1.396-13.624,4.584-17.073l48.226-27.809    c5.981-3.449,13.624-1.396,17.073,4.585c3.449,5.98,1.396,13.624-4.584,17.073l-48.226,27.809    C404.95,180.771,402.802,181.31,400.684,181.31z"/></g><g><path fill="#EA4335" d="M336.753,117.481c-2.123,0-4.274-0.541-6.244-1.68c-5.977-3.455-8.021-11.102-4.566-17.078l27.843-48.165    c3.455-5.977,11.101-8.021,17.078-4.566c5.977,3.455,8.021,11.102,4.566,17.078l-27.843,48.165    C345.271,115.242,341.07,117.481,336.753,117.481z"/></g><path fill="#CA452E" d="M163.32,367.106c-9.18,2.35-18.8,3.61-28.71,3.61c-63.44,0-114.86-51.36-114.86-114.72   c0-63.35,51.42-114.71,114.86-114.71c9.91,0,19.53,1.25,28.71,3.61c-49.54,12.73-86.15,57.65-86.15,111.1   C77.169,309.455,113.78,354.376,163.32,367.106z"/><path fill="#E2AB25" d="M289.469,255.995c0,43.8-18.76,85.25-50.47,114.25c-17-1.53-32.92-6.77-46.97-14.88   c34.34-19.83,57.44-56.9,57.44-99.37c0-42.46-23.1-79.53-57.44-99.36c14.05-8.11,29.97-13.35,46.97-14.88   C270.7,170.745,289.469,212.196,289.469,255.995z"/></g></svg>